<svg xmlns="http://www.w3.org/2000/svg" width="70" height="29" viewBox="0 0 70 29" fill="none">
<path d="M4.87461 11.1705C4.87461 10.4284 5.49116 10.1429 6.51233 10.1429C7.97664 10.1429 9.82629 10.5806 11.2906 11.3608V6.88882C9.69142 6.26083 8.11151 6.01344 6.51233 6.01344C2.60108 6.01344 0 8.03061 0 11.3989C0 16.6512 7.32155 15.8138 7.32155 18.0784C7.32155 18.9538 6.55086 19.2392 5.4719 19.2392C3.87272 19.2392 1.83039 18.5922 0.21194 17.7168V22.2459C2.00379 23.0071 3.81491 23.3306 5.4719 23.3306C9.47948 23.3306 12.2347 21.3706 12.2347 17.9642C12.2154 12.2933 4.87461 13.3019 4.87461 11.1705ZM17.8993 2.20747L13.1981 3.19702L13.1788 18.44C13.1788 21.2564 15.3175 23.3306 18.169 23.3306C19.7489 23.3306 20.905 23.0452 21.5408 22.7027V18.8396C20.9242 19.087 17.88 19.9624 17.88 17.1459V10.3903H21.5408V6.33695H17.88L17.8993 2.20747ZM27.5329 7.74516L27.2246 6.33695H23.0629V22.9881H27.8797V11.7034C29.0165 10.2381 30.9432 10.5045 31.5405 10.7138V6.33695C30.9239 6.10859 28.6697 5.68994 27.5329 7.74516ZM32.7158 6.33695H37.5518V22.9881H32.7158V6.33695ZM32.7158 4.89068L37.5518 3.86307V0L32.7158 1.00858V4.89068ZM47.6094 6.01344C45.7212 6.01344 44.5073 6.88882 43.833 7.49778L43.5825 6.31792H39.3437V28.5068L44.1605 27.4982L44.1798 22.1127C44.8734 22.6075 45.8946 23.3116 47.5901 23.3116C51.0389 23.3116 54.1795 20.5713 54.1795 14.5388C54.1602 9.02017 50.9811 6.01344 47.6094 6.01344ZM46.4533 19.125C45.3166 19.125 44.6422 18.7254 44.1798 18.2306L44.1605 11.1705C44.6615 10.6187 45.3551 10.2381 46.4533 10.2381C48.2066 10.2381 49.4205 12.1791 49.4205 14.672C49.4205 17.222 48.2259 19.125 46.4533 19.125ZM69.3621 14.7291C69.3621 9.85748 66.9729 6.01344 62.4066 6.01344C57.821 6.01344 55.0465 9.85748 55.0465 14.6911C55.0465 20.4191 58.3219 23.3116 63.0231 23.3116C65.3159 23.3116 67.05 22.7978 68.3602 22.0747V18.2687C67.05 18.9157 65.5472 19.3153 63.6397 19.3153C61.7708 19.3153 60.1138 18.6683 59.9019 16.4228H69.3235C69.3235 16.1754 69.3621 15.1859 69.3621 14.7291ZM59.8441 12.9213C59.8441 10.7709 61.1735 9.87651 62.3873 9.87651C63.5626 9.87651 64.815 10.7709 64.815 12.9213H59.8441Z" fill="#607B96"></path></svg>

<svg xmlns="http://www.w3.org/2000/svg" width="82" height="27" viewBox="0 0 82 27" fill="none"><path d="M20.1603 9.55189H10.5918V12.3912H17.3779C17.0428 16.373 13.73 18.0708 10.6032 18.0708C6.60306 18.0708 3.1121 14.9233 3.1121 10.5115C3.1121 6.21388 6.43984 2.90391 10.6122 2.90391C13.8313 2.90391 15.7279 4.95618 15.7279 4.95618L17.7161 2.89756C17.7161 2.89756 15.1644 0.0566406 10.5106 0.0566406C4.58445 0.0566406 0 5.05836 0 10.4608C0 15.7549 4.31229 20.9166 10.6617 20.9166C16.2457 20.9166 20.3334 17.0911 20.3334 11.4345C20.3334 10.2409 20.16 9.55123 20.16 9.55123L20.1603 9.55189Z" fill="#607B96"></path><path d="M27.9974 7.49609C24.0711 7.49609 21.2573 10.5658 21.2573 14.1457C21.2573 17.7785 23.9867 20.905 28.0434 20.905C31.7158 20.905 34.7248 18.098 34.7248 14.2236C34.7248 9.78311 31.2248 7.49609 27.9974 7.49609ZM28.0364 10.1297C29.9671 10.1297 31.7967 11.6906 31.7967 14.206C31.7967 16.6681 29.9749 18.2734 28.0275 18.2734C25.8878 18.2734 24.1998 16.5598 24.1998 14.1865C24.1998 11.864 25.867 10.1297 28.0364 10.1297Z" fill="#607B96"></path><path d="M42.6563 7.49609C38.7303 7.49609 35.9165 10.5658 35.9165 14.1457C35.9165 17.7785 38.6456 20.905 42.7026 20.905C46.3751 20.905 49.3837 18.098 49.3837 14.2236C49.3837 9.78311 45.8841 7.49609 42.6563 7.49609ZM42.6956 10.1297C44.6261 10.1297 46.4559 11.6906 46.4559 14.206C46.4559 16.6681 44.6341 18.2734 42.6866 18.2734C40.547 18.2734 38.859 16.5598 38.859 14.1865C38.859 11.864 40.5259 10.1297 42.6956 10.1297Z" fill="#607B96"></path><path d="M57.0335 7.50293C53.4298 7.50293 50.5972 10.6594 50.5972 14.2023C50.5972 18.2377 53.8811 20.9138 56.9715 20.9138C58.8821 20.9138 59.8983 20.1554 60.6484 19.2845V20.6068C60.6484 22.9196 59.2441 24.3048 57.1242 24.3048C55.0762 24.3048 54.0492 22.7823 53.692 21.9181L51.1153 22.9953C52.0296 24.9281 53.8696 26.9439 57.1453 26.9439C60.7286 26.9439 63.4593 24.6869 63.4593 19.9535V7.90608H60.6484V9.04174C59.784 8.11048 58.602 7.50319 57.0335 7.50319V7.50293ZM57.2945 10.1311C59.0613 10.1311 60.8755 11.6399 60.8755 14.2164C60.8755 16.8353 59.0652 18.2786 57.2552 18.2786C55.334 18.2786 53.5463 16.7183 53.5463 14.2413C53.5463 11.6674 55.403 10.1311 57.2945 10.1311Z" fill="#607B96"></path><path d="M75.9577 7.48633C72.5584 7.48633 69.7041 10.1912 69.7041 14.1818C69.7041 18.4051 72.8855 20.9097 76.2845 20.9097C79.1209 20.9097 80.8619 19.3578 81.9008 17.9671L79.5832 16.4251C78.982 17.3586 77.9763 18.2706 76.2985 18.2706C74.4138 18.2706 73.5471 17.2384 73.0101 16.2389L81.9998 12.5086L81.5331 11.4154C80.6649 9.27464 78.6389 7.48699 75.958 7.48699L75.9577 7.48633ZM76.0749 10.065C77.2997 10.065 78.1814 10.7161 78.5558 11.4972L72.5523 14.0065C72.2936 12.0636 74.1339 10.065 76.0749 10.065Z" fill="#607B96"></path><path d="M65.4185 20.5117H68.3715V0.75H65.4185V20.5117Z" fill="#607B96"></path></svg>


<svg xmlns="http://www.w3.org/2000/svg" width="106" height="17" viewBox="0 0 106 17" fill="none"><path fill-rule="evenodd" clip-rule="evenodd" d="M58.1252 7.94734C58.1252 7.94734 57.0947 7.30966 56.4563 7.06293C56.4563 7.06293 54.4825 6.14806 54.0908 5.71279C54.0908 5.71279 53.3221 4.98768 53.7718 4.14627C53.7718 4.14627 53.9605 3.59524 54.7735 3.59524C54.7735 3.59524 55.8319 3.65343 55.8319 4.52331V5.75047H59.6249L59.6177 3.94323C59.6177 3.94323 59.9094 0.982882 55.1499 0.853224C55.1499 0.853224 51.4071 0.607128 50.3335 2.62344C50.3335 2.62344 49.912 3.07263 49.912 4.63906V5.77096C49.912 5.77096 49.8691 7.07753 50.5364 7.91823C50.5364 7.91823 50.9136 8.46934 51.8424 9.07857C51.8424 9.07857 53.7282 10.0947 54.8594 10.6755C54.8594 10.6755 56.0026 11.3278 55.8517 12.365C55.8517 12.365 55.7591 13.4307 54.6558 13.3871C54.6558 13.3871 53.6469 13.3414 53.6469 12.2969V11.0704H49.6052V12.8526C49.6052 12.8526 49.4914 16.2601 54.6861 16.2601C54.6861 16.2601 59.6475 16.3613 59.8796 12.7626V11.3125C59.8796 11.3125 60.0544 9.10765 58.1252 7.94734Z" fill="#607B96"></path><path fill-rule="evenodd" clip-rule="evenodd" d="M38.707 1.27637L37.437 9.23578H37.1401L35.9266 1.34766H29.5905L29.2734 15.7609H33.0248L33.0697 4.90097H33.3646L35.3532 15.7586H39.2998L41.264 4.90508H41.5252L41.6157 15.7609H45.3867L44.9812 1.27637H38.707Z" fill="#607B96"></path><path fill-rule="evenodd" clip-rule="evenodd" d="M16.3758 1.33594L13.8799 15.7443H17.9182L19.3965 4.57253H19.7288L21.2067 15.7443H25.2446L22.7492 1.33594H16.3758Z" fill="#607B96"></path><path fill-rule="evenodd" clip-rule="evenodd" d="M101.117 7.7482V9.87433H102.152V12.156C102.152 13.2706 101.199 13.2911 101.199 13.2911C100.04 13.2911 100.084 12.2314 100.084 12.2314V4.33936C100.084 3.52635 101.112 3.48274 101.112 3.48274C102.1 3.48274 102.107 4.45248 102.107 4.45248V5.65252H105.909C106.033 3.31072 105.566 2.74378 105.566 2.74378C104.623 0.625534 101.055 0.74136 101.055 0.74136C95.5718 0.74136 96.1797 4.94863 96.1797 4.94863V12.5793C96.2975 16.5253 101.7 16.1251 101.792 16.1198C104.196 15.8538 104.922 15.0904 104.922 15.0904C105.59 14.5943 105.762 13.9076 105.762 13.9076C105.952 13.5074 106 12.2314 106 12.2314V7.7482H101.117Z" fill="#607B96"></path><path fill-rule="evenodd" clip-rule="evenodd" d="M88.513 10.093H88.3478L84.4879 1.27923H79.8726V15.7628H83.6293L83.4041 6.94997H83.5716L87.5693 15.7628H92.0468V1.27832H88.2422L88.513 10.093Z" fill="#607B96"></path><path fill-rule="evenodd" clip-rule="evenodd" d="M70.6993 12.1537C70.6993 12.1537 70.7542 13.3424 69.6522 13.3424C69.6522 13.3424 68.4925 13.4046 68.4925 12.1834L68.4813 1.28809H64.3594V12.0968C64.3594 12.0968 63.9366 16.1876 69.7097 16.1876C69.7097 16.1876 74.7265 16.2472 74.7265 12.284V1.28878H70.6993V12.1537Z" fill="#607B96"></path><path fill-rule="evenodd" clip-rule="evenodd" d="M8.51902 7.94724C8.51902 7.94724 7.48907 7.30956 6.85066 7.06284C6.85066 7.06284 4.87739 6.14931 4.48648 5.71269C4.48648 5.71269 3.71711 4.98701 4.16769 4.14685C4.16769 4.14685 4.35544 3.59577 5.1678 3.59577C5.1678 3.59577 6.22688 3.65337 6.22688 4.52321V5.75037H10.0213L10.0134 3.94246C10.0134 3.94246 10.3038 0.982766 5.54555 0.853129C5.54555 0.853129 5.18697 0.829951 4.66115 0.856468C4.66115 0.856468 1.77889 1.01124 0.748227 2.59226C0.742932 2.6035 0.734396 2.61275 0.728469 2.62334C0.728469 2.62334 0.307645 3.07185 0.307645 4.63896V5.77082C0.307645 5.77082 0.264057 7.07673 0.932182 7.91818C0.932182 7.91818 1.30859 8.46921 2.23804 9.07847C2.23804 9.07847 4.12264 10.0939 5.25447 10.6747C5.25447 10.6747 6.39811 11.327 6.24743 12.3649C6.24743 12.3649 6.15409 13.4307 5.05138 13.387C5.05138 13.387 4.04262 13.3413 4.04262 12.2968V11.0697H0.000197613V12.8525C0.000197613 12.8525 -0.113021 16.26 5.08051 16.26C5.08051 16.26 10.0418 16.3611 10.2746 12.7625V11.3131C10.2746 11.3131 10.4486 9.10756 8.51902 7.94724Z" fill="#607B96"></path></svg>


<svg xmlns="http://www.w3.org/2000/svg" width="113" height="27" viewBox="0 0 113 27" fill="none"><path d="M29.4665 18.7916C29.4665 19.1072 29.3404 19.4107 29.1175 19.6338L23.7611 24.9696C23.6944 25.0367 23.6091 25.0824 23.5163 25.101C23.4234 25.1197 23.327 25.1103 23.2395 25.0742C23.1519 25.0381 23.0772 24.9769 23.0247 24.8983C22.9722 24.8197 22.9444 24.7273 22.9448 24.6329V12.6859L29.3939 6.29883H29.4686L29.4665 18.7916Z" fill="#607B96"></path><path d="M25.1895 2.03292C25.0999 1.94368 24.9783 1.89355 24.8516 1.89355C24.7248 1.89355 24.6032 1.94368 24.5136 2.03292L16.5491 9.96576H16.4381V18.9187L16.5491 19.1539L29.4634 6.2893L25.1895 2.03292ZM3.63379 18.7921C3.63379 19.1097 3.75991 19.4112 3.98389 19.6343L9.33928 24.9701C9.40591 25.0375 9.49122 25.0836 9.58428 25.1024C9.67734 25.1213 9.77393 25.112 9.86169 25.0759C9.94944 25.0397 10.0244 24.9783 10.0769 24.8995C10.1294 24.8207 10.1571 24.728 10.1565 24.6334V12.6864L3.70946 6.30035H3.6348L3.63379 18.7921Z" fill="#607B96"></path><path d="M8.58561 2.03292C8.49594 1.94368 8.37437 1.89355 8.24762 1.89355C8.12087 1.89355 7.9993 1.94368 7.90963 2.03292L3.63379 6.2903L16.5481 19.1549V9.96677L8.58662 2.03292H8.58561ZM37.4803 18.7921V6.87423H40.6685V8.47427C41.4051 7.26017 42.4745 6.65212 43.9243 6.65212C45.3742 6.65212 46.4668 7.27525 47.2467 8.56171C48.4958 7.25213 49.4543 6.65212 50.9475 6.65212C53.6454 6.65212 55.1628 8.1617 55.1628 10.9397V18.8021H51.7294V12.3387C51.7294 10.6723 51.3733 9.91752 50.0576 9.91752C48.7188 9.91752 47.9964 10.7386 47.9964 12.3387V18.8021H44.5297V12.3387C44.5297 10.6723 44.1736 9.91752 42.8569 9.91752C41.5191 9.91752 40.7967 10.7386 40.7967 12.3387V18.8021L37.4803 18.7921ZM59.4023 8.41899C60.0564 7.75919 60.8489 7.25155 61.7229 6.93241C62.5969 6.61326 63.531 6.4905 64.4582 6.57289C65.3854 6.65529 66.2829 6.94081 67.0864 7.40903C67.8899 7.87726 68.5796 8.5166 69.1062 9.28132C69.8114 10.3032 70.1982 11.5098 70.218 12.7497C70.218 14.5488 69.6147 16.0363 68.412 17.2373C67.8215 17.8408 67.1133 18.3176 66.331 18.6386C65.5486 18.9595 64.7087 19.1178 63.8628 19.1037C62.0336 19.1037 60.5636 18.4805 59.3357 17.1941C58.1905 16.0156 57.5576 14.4351 57.5741 12.795C57.571 11.9811 57.7311 11.1747 58.045 10.4233C58.359 9.6718 58.8204 8.99038 59.4023 8.41899ZM63.884 15.7709C65.4448 15.7709 66.716 14.4603 66.716 12.8382C66.716 11.1939 65.4448 9.88536 63.884 9.88536C62.3232 9.88536 61.0519 11.1949 61.0519 12.8382C61.0519 14.4603 62.3454 15.7709 63.884 15.7709ZM72.6273 18.7921V6.87423H75.972L75.9266 8.47427C76.6631 7.27424 77.7769 6.65212 79.3599 6.65212C81.8359 6.65212 83.4411 8.20693 83.4411 10.9397V18.8021H79.9189V12.3387C79.9189 10.6723 79.5627 9.91752 78.2017 9.91752C76.8195 9.91752 76.0839 10.7386 76.0839 12.3387V18.8021L72.6273 18.7921ZM98.5366 8.41899C99.1907 7.75884 99.9831 7.2509 100.857 6.93154C101.731 6.61219 102.666 6.48931 103.593 6.57172C104.521 6.65412 105.418 6.93977 106.222 7.40821C107.025 7.87664 107.715 8.51628 108.242 9.28132C108.947 10.3033 109.333 11.5099 109.352 12.7497C109.352 14.5488 108.75 16.0363 107.545 17.2373C106.955 17.8407 106.247 18.3175 105.465 18.6385C104.683 18.9594 103.843 19.1177 102.997 19.1037C101.169 19.1037 99.6969 18.4805 98.47 17.1941C97.3251 16.0155 96.6925 14.435 96.7095 12.795C96.7062 11.9811 96.8661 11.1748 97.1799 10.4234C97.4937 9.67192 97.9549 8.99047 98.5366 8.41899ZM103.019 15.7709C104.58 15.7709 105.851 14.4603 105.851 12.8382C105.851 11.1939 104.58 9.88536 103.019 9.88536C101.458 9.88536 100.187 11.1949 100.187 12.8382C100.187 14.4603 101.48 15.7709 103.019 15.7709ZM86.0996 18.7921V16.3036L91.0272 9.95169H86.0986V6.87423H94.9953V9.6954L90.6488 15.7156H95.0851V18.8021L86.0986 18.7921H86.0996Z" fill="#607B96"></path></svg>


<svg xmlns="http://www.w3.org/2000/svg" width="57" height="19" viewBox="0 0 57 19" fill="none"><path d="M24.3191 18.297H19.7417L22.6027 0.713867H27.1805L24.3191 18.297Z" fill="#607B96"></path><path d="M15.8906 0.713867L11.5261 12.807L11.0101 10.2027L11.0106 10.2037L9.46985 2.29746C9.46985 2.29746 9.28407 0.713867 7.29839 0.713867H0.0841857L0 1.01112C0 1.01112 2.20673 1.47016 4.78783 3.02177L8.76484 18.2966H13.5343L20.8172 0.713867H15.8906Z" fill="#607B96"></path><path d="M51.896 18.2966H56.0992L52.4345 0.713867H48.7543C47.0545 0.713867 46.6406 2.0242 46.6406 2.0242L39.8145 18.2966H44.5854L45.5401 15.6854H51.3593L51.896 18.2966ZM46.8589 12.077L49.2646 5.49711L50.6177 12.077H46.8589Z" fill="#607B96"></path><path d="M40.1722 4.94231L40.8249 1.16605C40.8249 1.16605 38.8092 0.399414 36.7078 0.399414C34.4362 0.399414 29.0421 1.39274 29.0421 6.2202C29.0421 10.7631 35.373 10.8195 35.373 13.2046C35.373 15.5896 29.6944 15.1635 27.8207 13.6589L27.1396 17.6064C27.1396 17.6064 29.1832 18.5997 32.307 18.5997C35.4304 18.5997 40.1435 16.9813 40.1435 12.58C40.1435 8.00839 33.7551 7.58274 33.7551 5.5956C33.7551 3.60752 38.2133 3.86291 40.1722 4.94231Z" fill="#607B96"></path><path d="M11.0106 10.2037L9.46985 2.29746C9.46985 2.29746 9.28407 0.713867 7.29839 0.713867H0.0841857L0 1.01112C0 1.01112 3.46765 1.73025 6.79421 4.42241C9.97356 6.99605 11.0106 10.2037 11.0106 10.2037Z" fill="#607B96"></path></svg>